<?xml version="1.0" standalone="no"?>
<!DOCTYPE svg PUBLIC "-//W3C//DTD SVG 20010904//EN"
 "http://www.w3.org/TR/2001/REC-SVG-20010904/DTD/svg10.dtd">
<svg version="1.0" xmlns="http://www.w3.org/2000/svg"
 width="814.000000pt" height="515.000000pt" viewBox="0 0 814.000000 515.000000"
 preserveAspectRatio="xMidYMid meet">

<g transform="translate(0.000000,515.000000) scale(0.100000,-0.100000)"
fill="#000000" stroke="none">
<path d="M2040 3013 c0 -17 74 -93 90 -93 20 0 8 18 -40 63 -34 31 -50 41 -50
30z"/>
<path d="M1783 2984 c-52 -43 -60 -73 -13 -49 32 16 64 58 58 74 -1 6 -22 -6
-45 -25z"/>
<path d="M1693 2931 c-21 -45 -53 -64 -68 -40 -12 19 -35 9 -35 -16 0 -18 9
-29 33 -41 17 -9 46 -27 62 -39 17 -12 45 -27 64 -34 19 -6 43 -18 52 -27 10
-9 35 -22 56 -30 l38 -15 -32 4 c-35 4 -39 -3 -23 -33 8 -15 15 -17 40 -10 38
11 40 2 2 -11 -24 -8 -29 -17 -40 -74 -6 -35 -12 -87 -12 -114 0 -53 31 -165
54 -196 15 -20 15 -20 36 1 21 20 21 25 10 78 -6 31 -10 72 -9 90 3 26 -2 39
-21 55 l-25 21 27 -11 c24 -11 30 -9 48 12 l21 24 -11 -23 c-12 -25 -15 -150
-5 -183 6 -17 9 -18 22 -8 31 26 63 107 63 160 0 54 -18 129 -31 129 -4 0 2
17 12 37 25 49 24 63 -4 63 -13 0 -32 7 -43 16 -18 15 -18 15 3 5 34 -17 62
-13 96 13 18 13 47 28 64 34 18 6 48 22 66 36 19 15 38 26 44 26 18 0 46 39
40 55 -8 20 -26 19 -49 -2 -14 -13 -18 -13 -19 -2 -1 8 -4 3 -8 -11 -5 -17
-18 -28 -41 -35 -19 -5 -46 -17 -60 -26 -23 -15 -102 -20 -125 -8 -9 5 -74 4
-85 -1 -3 -1 -31 -3 -62 -5 -40 -2 -61 1 -69 11 -7 8 -31 19 -55 25 -29 8 -44
17 -44 27 0 12 3 13 12 4 20 -20 43 -14 78 23 27 27 30 35 16 35 -10 0 -31
-13 -48 -30 -36 -36 -44 -38 -23 -6 10 14 15 39 13 59 l-3 35 -22 -47z"/>
<path d="M2150 2945 c0 -31 19 -72 36 -79 20 -8 17 18 -6 64 -24 46 -30 50
-30 15z"/>
<path d="M2070 2936 c0 -16 75 -86 92 -86 18 0 17 3 -8 29 -32 31 -84 67 -84
57z"/>
<path d="M1896 2908 c-9 -12 -16 -30 -16 -39 0 -38 70 -65 98 -37 17 17 15 64
-4 82 -22 23 -60 20 -78 -6z"/>
<path d="M1567 2765 c-57 -56 -81 -117 -75 -184 7 -70 45 -116 122 -151 109
-49 115 -48 58 9 -65 65 -102 135 -102 195 0 52 13 87 53 139 26 34 27 37 9
37 -11 0 -41 -20 -65 -45z"/>
<path d="M2242 2783 c94 -101 81 -221 -36 -341 l-51 -53 64 23 c127 46 183
124 161 225 -18 80 -96 173 -145 173 -16 0 -16 -3 7 -27z"/>
<path d="M2740 2450 l0 -240 50 0 50 0 0 107 c0 58 3 103 7 99 4 -3 21 -41 39
-84 42 -101 56 -101 97 0 18 43 35 78 40 78 4 0 7 -45 7 -100 l0 -100 50 0 50
0 0 240 0 240 -53 0 -54 0 -43 -106 c-24 -58 -46 -101 -50 -97 -4 4 -24 52
-46 105 l-39 98 -52 0 -53 0 0 -240z"/>
<path d="M3240 2450 l0 -240 150 0 150 0 0 55 0 55 -100 0 -100 0 0 35 0 35
70 0 70 0 0 55 0 54 -67 3 -68 3 -3 38 -3 37 100 0 101 0 0 55 0 55 -150 0
-150 0 0 -240z"/>
<path d="M3640 2450 l0 -240 144 0 c130 0 146 2 170 21 l26 20 0 195 c0 194 0
195 -25 219 -23 24 -28 25 -170 25 l-145 0 0 -240z m235 108 c3 -13 5 -70 3
-128 l-3 -105 -62 -3 -63 -3 0 131 0 130 60 0 c54 0 60 -2 65 -22z"/>
<path d="M4090 2450 l0 -240 55 0 55 0 0 240 0 240 -55 0 -55 0 0 -240z"/>
<path d="M4345 2678 c-43 -23 -45 -34 -45 -230 0 -187 0 -189 25 -213 23 -24
30 -25 145 -25 118 0 122 1 145 26 20 22 25 37 25 80 l0 54 -55 0 c-52 0 -55
-1 -55 -25 0 -24 -3 -25 -60 -25 l-60 0 0 130 0 130 60 0 c57 0 60 -1 60 -25
0 -24 3 -25 55 -25 l55 0 0 45 c0 55 -15 90 -47 104 -31 14 -222 14 -248 -1z"/>
<path d="M4773 2666 l-28 -24 0 -190 c0 -188 0 -191 24 -216 24 -25 28 -26
146 -26 118 0 122 1 146 26 24 25 24 28 24 216 l0 190 -28 24 c-26 22 -36 24
-142 24 -106 0 -116 -2 -142 -24z m207 -216 l0 -130 -65 0 -65 0 0 130 0 130
65 0 65 0 0 -130z"/>
<path d="M5190 2635 l0 -55 60 0 60 0 0 -185 0 -185 50 0 50 0 0 185 0 185 60
0 60 0 0 55 0 55 -170 0 -170 0 0 -55z"/>
<path d="M5642 2466 c-34 -124 -65 -232 -68 -241 -5 -12 3 -15 48 -15 54 0 55
1 64 33 9 31 11 32 71 35 l62 3 9 -33 c8 -31 11 -33 60 -36 38 -2 52 1 52 10
0 7 -29 114 -64 238 l-63 225 -54 3 -55 3 -62 -225z m136 -33 l10 -43 -30 0
c-27 0 -30 3 -24 23 4 12 9 35 13 50 7 35 17 25 31 -30z"/>
<path d="M6050 2450 l0 -240 145 0 145 0 0 55 0 55 -90 0 -90 0 0 185 0 185
-55 0 -55 0 0 -240z"/>
<path d="M6440 2450 l0 -240 55 0 55 0 0 66 c0 61 21 124 41 124 4 0 24 -43
45 -95 l37 -95 58 0 57 0 -59 147 c-32 81 -59 152 -59 158 0 6 23 45 50 87 28
42 50 79 50 82 0 3 -24 6 -54 6 l-53 0 -54 -82 -54 -82 -3 82 -3 82 -54 0 -55
0 0 -240z"/>
<path d="M1430 2510 c0 -31 48 -116 83 -147 34 -30 109 -59 197 -78 19 -4 63
-20 98 -36 35 -16 62 -25 60 -21 -2 4 -11 23 -20 43 -20 42 -75 74 -198 114
-118 39 -174 69 -199 107 -11 18 -21 26 -21 18z"/>
<path d="M2410 2477 c-27 -34 -106 -71 -223 -107 -87 -27 -142 -68 -153 -113
l-7 -29 31 16 c17 9 79 30 138 47 116 33 171 62 202 106 19 28 47 102 40 107
-1 2 -14 -10 -28 -27z"/>
<path d="M2000 2314 c-13 -20 -54 -61 -91 -90 -81 -65 -106 -95 -120 -147 -11
-43 1 -120 26 -153 11 -15 12 -10 8 33 -7 65 10 96 96 181 76 74 114 138 109
183 l-3 29 -25 -36z"/>
<path d="M1675 2253 c28 -14 69 -40 91 -59 l41 -33 23 24 22 24 -38 16 c-37
15 -172 56 -184 55 -3 -1 18 -13 45 -27z"/>
<path d="M2145 2251 c-87 -25 -108 -38 -101 -64 3 -12 6 -28 6 -35 0 -8 18 4
40 25 23 21 64 50 93 65 60 31 48 34 -38 9z"/>
<path d="M1968 2163 c-41 -42 -62 -83 -42 -83 16 0 66 45 80 71 29 57 12 63
-38 12z"/>
<path d="M2012 2134 c-6 -12 -34 -39 -63 -60 -28 -22 -57 -51 -65 -66 -16 -31
-18 -86 -4 -108 8 -12 10 -11 10 8 0 35 26 78 66 108 38 30 77 96 72 122 -3
14 -6 14 -16 -4z"/>
<path d="M1881 2081 c-7 -5 -11 -16 -9 -25 2 -14 6 -15 20 -4 20 15 10 42 -11
29z"/>
<path d="M1988 2023 c-16 -18 -16 -21 13 -71 32 -57 45 -68 28 -24 -6 15 -14
47 -17 71 -7 42 -8 42 -24 24z"/>
</g>
</svg>
